PathFileType	4	(X/Y/Z)	C:/Users/opensim2020/Desktop/walking_exp_matlab/subject02_walking12_straight_03.trc	
DataRate	CameraRate	NumFrames	NumMarkers	Units	OrigDataRate	OrigDataStartFrame	OrigNumFrames	
100.00	100.00	4	42	mm	100.00	1637	127	
Frame#	Time	LFHD			RFHD			LBHD			RBHD			C7			T10			CLAV			STRN			RBAK			LSHO			LUPA			LELB			LFRM			LWRA			LWRB			LFIN			RSHO			RUPA			RELB			RFRM			RWRA			RWRB			RFIN			LASI			RASI			LPSI			RPSI			LTHI			LKNE			LTIB			LANK			LHEE			LTOE			RTHI			RKNE			RTIB			RANK			RHEE			RTOE			*39			*40			*41			
		X1	Y1	Z1	X2	Y2	Z2	X3	Y3	Z3	X4	Y4	Z4	X5	Y5	Z5	X6	Y6	Z6	X7	Y7	Z7	X8	Y8	Z8	X9	Y9	Z9	X10	Y10	Z10	X11	Y11	Z11	X12	Y12	Z12	X13	Y13	Z13	X14	Y14	Z14	X15	Y15	Z15	X16	Y16	Z16	X17	Y17	Z17	X18	Y18	Z18	X19	Y19	Z19	X20	Y20	Z20	X21	Y21	Z21	X22	Y22	Z22	X23	Y23	Z23	X24	Y24	Z24	X25	Y25	Z25	X26	Y26	Z26	X27	Y27	Z27	X28	Y28	Z28	X29	Y29	Z29	X30	Y30	Z30	X31	Y31	Z31	X32	Y32	Z32	X33	Y33	Z33	X34	Y34	Z34	X35	Y35	Z35	X36	Y36	Z36	X37	Y37	Z37	X38	Y38	Z38	X39	Y39	Z39	X40	Y40	Z40	X41	Y41	Z41	X42	Y42	Z42	

112	1.110	-963.26788	798.19952	1710.70447	-831.59076	743.60321	1686.10168	-1025.77795	675.48340	1648.10583	-899.41461	609.82422	1622.88708	-961.62946	586.64081	1501.10645	-965.70819	537.77277	1222.75134	-965.80139	726.79938	1432.79028	-951.23218	779.59320	1261.99841	-901.21973	526.48407	1324.81763	-1136.98425	661.91919	1475.22729	-1216.35242	593.05072	1287.64526	-1223.11340	545.90936	1157.34045	-1245.66760	498.20013	1039.04028	-1226.41394	491.58563	895.59711	-1258.18384	453.35272	923.33905	-1255.74268	429.86957	857.74500	-773.50043	653.31726	1467.03479	-678.45459	661.06934	1282.27771	-640.46710	723.77747	1149.65698	-625.83197	816.21863	1069.93127	-647.81744	930.16760	1002.17535	-617.88696	896.23138	967.51190	-611.39172	964.45551	948.12708	-1072.33228	797.70673	972.77936	-817.20752	746.64050	944.26001	-1031.19751	573.86908	1007.26447	-921.45074	548.69189	1004.61884	-1151.90198	828.04181	680.15271	-1124.53149	865.70715	482.03925	-1135.61316	880.00104	288.79175	-1109.78674	965.18738	79.42603	-1061.61194	936.41864	40.23310	-1096.20508	1121.68884	88.33083	-789.04022	588.23401	654.88562	-839.28955	530.06500	454.51031	-849.54266	417.57031	301.57138	-898.13733	330.50424	129.59178	-959.96906	286.15698	89.04363	-876.52832	460.56946	38.29110	-912.58002	674.69208	1780.72107	-3360.32764	2845.27539	1034.19409			 
113	1.120	-963.55225	810.63306	1709.37695	-831.89441	755.75696	1684.60486	-1026.49097	687.96228	1646.91333	-900.45886	622.11176	1621.72668	-962.37872	598.95007	1499.50122	-966.41113	551.34674	1220.51160	-966.44958	739.48065	1431.81189	-951.88135	793.15771	1261.33557	-901.73358	539.47351	1322.88379	-1137.39246	674.30548	1474.13708	-1217.12695	605.25439	1287.01892	-1224.00305	558.15967	1156.61609	-1246.75513	510.85620	1038.09229	-1226.74402	504.75638	894.59967	-1258.68298	466.48746	922.14587	-1256.05945	443.35092	856.20502	-774.38684	665.14178	1465.97314	-679.46423	672.67645	1281.01392	-641.67316	734.23419	1148.12231	-626.47595	826.47736	1068.15039	-647.15240	940.23987	999.95428	-618.17310	906.12427	965.41443	-610.71899	974.23834	946.05829	-1073.12012	813.28229	973.57751	-818.10321	761.60626	943.35413	-1032.45239	589.24512	1005.74188	-922.98865	563.58374	1002.79437	-1151.33069	845.28540	680.00629	-1124.53442	879.62518	480.41837	-1135.71558	889.65125	286.45020	-1109.46802	969.70935	75.40868	-1062.47620	939.43884	38.26969	-1094.30823	1126.22705	81.67056	-788.91937	600.76825	654.71088	-838.05219	541.06281	454.93744	-848.94366	424.67401	304.72345	-897.03107	333.79053	134.62721	-959.01935	288.91867	95.56458	-876.00134	460.97885	38.31866	-912.93640	687.02551	1779.47375	-3357.33325	2845.94849	1034.26794			 
114	1.130	-963.68011	822.77863	1707.86304	-832.45044	767.51910	1683.10303	-1027.14661	700.46777	1645.58057	-901.55969	634.07806	1620.33386	-963.05566	611.32465	1497.94556	-967.19965	565.18787	1218.34961	-967.10205	752.20190	1430.83667	-952.56525	806.91986	1260.76001	-902.45795	552.49414	1320.86707	-1137.93213	686.76184	1472.99951	-1218.38684	617.74341	1286.54724	-1225.10535	570.96729	1155.81396	-1247.38416	524.17120	1036.68286	-1227.18152	518.78510	893.34009	-1259.30786	480.36292	920.36267	-1256.53906	457.89502	854.31177	-775.25922	677.01233	1464.65479	-680.50897	684.08850	1279.68506	-642.78778	744.50189	1146.40466	-627.31354	836.42889	1066.08679	-647.28149	950.35309	997.70428	-618.82605	915.41614	962.85040	-610.48779	983.65765	943.72949	-1073.95703	828.91327	974.51147	-819.13104	776.75183	942.32343	-1033.90063	604.76007	1004.31189	-924.68903	578.76709	1000.95862	-1150.90063	861.44086	679.18060	-1125.25708	892.83954	478.63165	-1135.46350	899.21014	284.07877	-1108.97546	975.08008	72.68417	-1061.82019	942.91241	40.22062	-1093.74915	1133.29175	69.94020	-788.77417	613.33154	654.55310	-836.50824	552.44769	455.49356	-848.15338	432.37341	308.08395	-895.81757	337.60236	140.11652	-958.04419	292.36288	102.86850	-875.51294	461.47913	38.34959	-913.92847	699.14124	1778.12146	-3360.34424	2845.15503	1034.25146			 
115	1.140	-963.87640	835.35065	1707.05139	-832.73413	779.51636	1682.06543	-1027.76550	713.26453	1644.46448	-902.46014	646.46100	1619.10547	-964.13159	623.26379	1496.24695	-968.37115	579.03143	1216.73682	-967.83917	764.97327	1430.02356	-953.21912	820.61517	1260.53394	-904.02850	565.45947	1319.39246	-1138.56519	699.39069	1472.01440	-1219.20056	630.53339	1285.66345	-1226.26257	584.27966	1154.62598	-1248.40320	538.23126	1035.04468	-1227.71167	533.61188	891.79529	-1260.06165	495.22302	918.57953	-1257.45349	473.36258	852.13605	-776.24786	688.78900	1463.47437	-681.52045	695.17810	1278.22583	-644.04242	754.44745	1144.63501	-628.01489	845.91467	1063.77600	-647.44720	959.81793	994.90015	-619.10565	924.60083	960.30664	-610.37372	992.46124	940.67706	-1074.77026	844.42273	975.43903	-820.27502	792.72333	941.98151	-1035.51013	620.70844	1002.98901	-926.52588	593.93726	999.10565	-1151.01111	876.00623	678.55670	-1126.99023	904.67450	477.66315	-1134.10999	909.65259	282.61200	-1110.79846	982.18781	73.48335	-1063.41846	947.68927	43.13140	-1093.84668	1140.36157	56.13098	-788.78705	626.78992	654.46307	-834.89447	564.49774	455.97742	-847.18237	440.79422	311.62900	-894.41962	341.90939	146.31236	-956.48029	296.51959	110.67382	-874.93182	461.94586	38.33590	-914.54053	711.20203	1776.99707	-3357.38599	2845.76416	1034.42163			 
